<mxfile host="app.diagrams.net" modified="2022-07-04T09:24:23.660Z" agent="5.0 (Windows NT 10.0; WOW64) AppleWebKit/537.36 (KHTML, like Gecko) Chrome/101.0.0.0 Safari/537.36" etag="HE9TPBlAfdBL87ao6Jqo" version="20.0.1" type="github">
  <diagram id="wFE0QG_FPsp0jaGvCLVb" name="Page-1">
    <mxGraphModel dx="1038" dy="539" grid="1" gridSize="10" guides="1" tooltips="1" connect="1" arrows="1" fold="1" page="1" pageScale="1" pageWidth="850" pageHeight="1100" math="0" shadow="0">
      <root>
        <mxCell id="0" />
        <mxCell id="1" parent="0" />
        <mxCell id="_naBQCB_jhAhzEp41lhB-8" value="devops职能切面" style="swimlane;fillColor=#e1d5e7;strokeColor=#9673a6;" vertex="1" parent="1">
          <mxGeometry x="100" y="60" width="670" height="380" as="geometry" />
        </mxCell>
        <mxCell id="_naBQCB_jhAhzEp41lhB-9" value="" style="rounded=0;whiteSpace=wrap;html=1;fillColor=#dae8fc;strokeColor=#6c8ebf;" vertex="1" parent="_naBQCB_jhAhzEp41lhB-8">
          <mxGeometry y="220" width="670" height="160" as="geometry" />
        </mxCell>
        <mxCell id="_naBQCB_jhAhzEp41lhB-10" value="" style="rounded=0;whiteSpace=wrap;html=1;fillColor=#d5e8d4;strokeColor=#82b366;" vertex="1" parent="_naBQCB_jhAhzEp41lhB-8">
          <mxGeometry y="20" width="670" height="200" as="geometry" />
        </mxCell>
        <mxCell id="_naBQCB_jhAhzEp41lhB-11" value="Devops&lt;br&gt;&lt;br&gt;&lt;br&gt;&lt;br&gt;&lt;br&gt;" style="rounded=0;whiteSpace=wrap;html=1;" vertex="1" parent="_naBQCB_jhAhzEp41lhB-8">
          <mxGeometry x="160" y="130" width="380" height="90" as="geometry" />
        </mxCell>
        <mxCell id="_naBQCB_jhAhzEp41lhB-12" value="CMDB" style="rounded=0;whiteSpace=wrap;html=1;" vertex="1" parent="_naBQCB_jhAhzEp41lhB-8">
          <mxGeometry x="180" y="210" width="345" height="80" as="geometry" />
        </mxCell>
        <mxCell id="_naBQCB_jhAhzEp41lhB-13" value="资源与环境管理" style="rounded=0;whiteSpace=wrap;html=1;" vertex="1" parent="_naBQCB_jhAhzEp41lhB-8">
          <mxGeometry x="285" y="160" width="130" height="30" as="geometry" />
        </mxCell>
        <mxCell id="_naBQCB_jhAhzEp41lhB-17" value="虚拟云资源管理&lt;br&gt;VMware" style="rounded=0;whiteSpace=wrap;html=1;" vertex="1" parent="_naBQCB_jhAhzEp41lhB-8">
          <mxGeometry x="170" y="330" width="100" height="40" as="geometry" />
        </mxCell>
        <mxCell id="_naBQCB_jhAhzEp41lhB-18" value="公有云资源管理&lt;br&gt;aws" style="rounded=0;whiteSpace=wrap;html=1;" vertex="1" parent="_naBQCB_jhAhzEp41lhB-8">
          <mxGeometry x="306.25" y="330" width="92.5" height="40" as="geometry" />
        </mxCell>
        <mxCell id="_naBQCB_jhAhzEp41lhB-21" value="容器资源管理&lt;br&gt;k8s" style="rounded=0;whiteSpace=wrap;html=1;" vertex="1" parent="_naBQCB_jhAhzEp41lhB-8">
          <mxGeometry x="448" y="330" width="85" height="40" as="geometry" />
        </mxCell>
        <mxCell id="_naBQCB_jhAhzEp41lhB-22" value="" style="endArrow=classic;startArrow=classic;html=1;rounded=0;exitX=0.5;exitY=0;exitDx=0;exitDy=0;entryX=0.115;entryY=1.033;entryDx=0;entryDy=0;entryPerimeter=0;" edge="1" parent="_naBQCB_jhAhzEp41lhB-8" source="_naBQCB_jhAhzEp41lhB-17" target="_naBQCB_jhAhzEp41lhB-12">
          <mxGeometry width="50" height="50" relative="1" as="geometry">
            <mxPoint x="362.5" y="220" as="sourcePoint" />
            <mxPoint x="363" y="200" as="targetPoint" />
            <Array as="points">
              <mxPoint x="220" y="330" />
            </Array>
          </mxGeometry>
        </mxCell>
        <mxCell id="_naBQCB_jhAhzEp41lhB-23" value="" style="endArrow=classic;startArrow=classic;html=1;rounded=0;exitX=0.5;exitY=0;exitDx=0;exitDy=0;entryX=0.5;entryY=1;entryDx=0;entryDy=0;" edge="1" parent="_naBQCB_jhAhzEp41lhB-8" source="_naBQCB_jhAhzEp41lhB-18" target="_naBQCB_jhAhzEp41lhB-12">
          <mxGeometry width="50" height="50" relative="1" as="geometry">
            <mxPoint x="352.33" y="327.36" as="sourcePoint" />
            <mxPoint x="352.00499999999994" y="290" as="targetPoint" />
            <Array as="points" />
          </mxGeometry>
        </mxCell>
        <mxCell id="_naBQCB_jhAhzEp41lhB-24" value="" style="endArrow=classic;startArrow=classic;html=1;rounded=0;exitX=0.5;exitY=0;exitDx=0;exitDy=0;entryX=0.899;entryY=1.003;entryDx=0;entryDy=0;entryPerimeter=0;" edge="1" parent="_naBQCB_jhAhzEp41lhB-8" source="_naBQCB_jhAhzEp41lhB-21" target="_naBQCB_jhAhzEp41lhB-12">
          <mxGeometry width="50" height="50" relative="1" as="geometry">
            <mxPoint x="489.83000000000004" y="327.36" as="sourcePoint" />
            <mxPoint x="490" y="290" as="targetPoint" />
            <Array as="points" />
          </mxGeometry>
        </mxCell>
        <mxCell id="_naBQCB_jhAhzEp41lhB-25" value="统一消息&lt;br&gt;平台" style="rounded=0;whiteSpace=wrap;html=1;" vertex="1" parent="_naBQCB_jhAhzEp41lhB-8">
          <mxGeometry x="410" y="60" width="70" height="30" as="geometry" />
        </mxCell>
        <mxCell id="_naBQCB_jhAhzEp41lhB-26" value="自动化&lt;br&gt;运维平台" style="rounded=0;whiteSpace=wrap;html=1;" vertex="1" parent="_naBQCB_jhAhzEp41lhB-8">
          <mxGeometry x="180" y="60" width="70" height="30" as="geometry" />
        </mxCell>
        <mxCell id="_naBQCB_jhAhzEp41lhB-28" value="自动化&lt;br&gt;测试平台" style="rounded=0;whiteSpace=wrap;html=1;" vertex="1" parent="_naBQCB_jhAhzEp41lhB-8">
          <mxGeometry x="290" y="60" width="70" height="30" as="geometry" />
        </mxCell>
        <mxCell id="_naBQCB_jhAhzEp41lhB-29" value="统一监控&lt;br&gt;平台" style="rounded=0;whiteSpace=wrap;html=1;" vertex="1" parent="_naBQCB_jhAhzEp41lhB-8">
          <mxGeometry x="530" y="60" width="70" height="30" as="geometry" />
        </mxCell>
        <mxCell id="_naBQCB_jhAhzEp41lhB-30" value="统一权限&lt;br&gt;管理平台" style="rounded=0;whiteSpace=wrap;html=1;" vertex="1" parent="_naBQCB_jhAhzEp41lhB-8">
          <mxGeometry x="60" y="60" width="70" height="30" as="geometry" />
        </mxCell>
        <mxCell id="_naBQCB_jhAhzEp41lhB-16" value="" style="endArrow=classic;startArrow=classic;html=1;rounded=0;exitX=0.5;exitY=0;exitDx=0;exitDy=0;" edge="1" parent="1" source="_naBQCB_jhAhzEp41lhB-12">
          <mxGeometry width="50" height="50" relative="1" as="geometry">
            <mxPoint x="400" y="260" as="sourcePoint" />
            <mxPoint x="453" y="250" as="targetPoint" />
          </mxGeometry>
        </mxCell>
      </root>
    </mxGraphModel>
  </diagram>
</mxfile>
